{"title":"War.of.the.Worlds.2005.SWESUB.DVDRip.XviD.AC3.(5.1).-Zen_Bud","uid":5713490,"size":1474313596,"categoryP":"video","categoryS":"movies","magnet":"?xt=urn:btih:a299d6d87c7fc5957726ebbf5ba0adbba591d8f7&amp;dn=War.of.the.Worlds.2005.SWESUB.DVDRip.XviD.AC3.%285.1%29.-Zen_Bud&amp;tr=udp%3A%2F%2Ftracker.openbittorrent.com%3A80&amp;tr=udp%3A%2F%2Fopen.demonii.com%3A1337&amp;tr=udp%3A%2F%2Ftracker.coppersurfer.tk%3A6969&amp;tr=udp%3A%2F%2Fexodus.desync.com%3A6969","seeders":0,"leechers":0,"uploader":null,"files":1,"time":1279991922,"description":"General\nComplete name                    : War.of.the.Worlds.2005.avi\nFormat                           : AVI\nFile size                        : 1.37 GiB\nDuration                         : 1h 56mn\nOverall bit rate                 : 1 687 Kbps\n\nVideo\n\nFormat                           : MPEG-4 Visual\nCodec ID/Hint                    : XviD\nDuration                         : 1h 56mn\nBit rate                         : 1 228 Kbps\nWidth                            : 720 pixels\nHeight                           : 464 pixels\nDisplay aspect ratio             : 16:9\nStream size                      : 1 024 MiB (73%)\nWriting library                  : XviD 1.1.2 (UTC 2006-11-01)\n\nAudio\n\nFormat                           : AC-3\nDuration                         : 1h 56mn\nBit rate                         : 448 Kbps\nChannel(s)                       : 6 channels\nChannel positions                : Front: L C R, Side: L R, LFE\nSampling rate                    : 48.0 KHz\nStream size                      : 373 MiB (27%)","torrent":{"xt":"urn:btih:a299d6d87c7fc5957726ebbf5ba0adbba591d8f7","amp;dn":"War.of.the.Worlds.2005.SWESUB.DVDRip.XviD.AC3.%285.1%29.-Zen_Bud","amp;tr":["udp%3A%2F%2Ftracker.openbittorrent.com%3A80","udp%3A%2F%2Fopen.demonii.com%3A1337","udp%3A%2F%2Ftracker.coppersurfer.tk%3A6969","udp%3A%2F%2Fexodus.desync.com%3A6969"],"infoHash":"a299d6d87c7fc5957726ebbf5ba0adbba591d8f7","infoHashBuffer":{"type":"Buffer","data":[162,153,214,216,124,127,197,149,119,38,235,191,91,160,173,187,165,145,216,247]},"announce":[],"urlList":[]}}